<svg width="150" height="195" viewBox="0 0 150 195" fill="none" xmlns="http://www.w3.org/2000/svg">
<path d="M12.9453 69.1541H138.347" stroke="black" stroke-width="4"/>
<path d="M42.1202 2H11V69.1541H42.1202V2Z" stroke="black" stroke-width="4"/>
<path d="M21.4414 69.1541V13.4653H31.6783V69.1541H21.4414Z" stroke="black" stroke-width="4"/>
<path d="M138.143 2H107.022V69.1541H138.143V2Z" stroke="black" stroke-width="4"/>
<path d="M117.464 69.1541V13.4653H127.701V69.1541H117.464Z" stroke="black" stroke-width="4"/>
<path d="M11 69.7683C11 117.472 21.5446 137.639 51.2317 137.639" stroke="black" stroke-width="4"/>
<path d="M138.144 69.7683C138.144 117.472 127.599 137.639 97.9119 137.639" stroke="black" stroke-width="4"/>
<path d="M21.4424 70.1777C21.4424 107.973 32.4838 125.048 54.8147 125.048" stroke="black" stroke-width="4"/>
<path d="M127.701 70.1777C127.701 107.973 116.66 125.048 94.3288 125.048" stroke="black" stroke-width="4"/>
<path d="M31.6787 68.54C31.6787 98.438 39.8028 113.275 57.4757 113.275" stroke="black" stroke-width="4"/>
<path d="M117.465 68.54C117.465 98.438 109.341 113.275 91.6678 113.275" stroke="black" stroke-width="4"/>
<path d="M42.1211 70.792C42.1211 90.7337 46.6164 102.424 60.3428 102.424" stroke="black" stroke-width="4"/>
<path d="M107.022 70.792C107.022 90.7337 102.527 102.424 88.8008 102.424" stroke="black" stroke-width="4"/>
<path d="M52.3574 67.7209C52.3574 86.6865 54.3363 94.1322 67.508 94.1322" stroke="black" stroke-width="4"/>
<path d="M96.7861 67.7209C96.7861 86.6865 94.8073 94.1322 81.6355 94.1322" stroke="black" stroke-width="4"/>
<path d="M52.3574 69.1541V35.7817L64.6417 45.7115V69.1541H52.3574Z" stroke="black" stroke-width="4"/>
<path d="M96.7861 69.1541V35.7817L84.5018 45.7115V69.1541H96.7861Z" stroke="black" stroke-width="4"/>
<path d="M74.7219 94.1323H62.0785L50.8019 135.109C50.4515 136.382 51.4096 137.639 52.7302 137.639H74.7219" stroke="black" stroke-width="4"/>
<path d="M74.6257 94.1323H87.2692L98.5458 135.109C98.8962 136.382 97.9381 137.639 96.6174 137.639H74.6257" stroke="black" stroke-width="4"/>
<path d="M69.5497 94.1323L61.5996 136.657" stroke="black" stroke-width="4"/>
<path d="M79.798 94.1323L87.748 136.657" stroke="black" stroke-width="4"/>
<path d="M74.8184 94.413V137.499" stroke="black" stroke-width="4"/>
<path d="M108.5 52H118" stroke="black" stroke-width="4"/>
<path d="M119.5 29.5H127.5" stroke="black" stroke-width="4"/>
<path d="M128 41H136" stroke="black" stroke-width="4"/>
<path d="M13.068 185.36C10.812 185.36 8.832 184.904 7.128 183.992C5.448 183.08 4.14 181.784 3.204 180.104C2.292 178.4 1.836 176.396 1.836 174.092V161.6C1.836 160.928 2.052 160.4 2.484 160.016C2.916 159.632 3.492 159.44 4.212 159.44C4.932 159.44 5.508 159.644 5.94 160.052C6.396 160.436 6.624 160.952 6.624 161.6V174.2C6.624 176.576 7.188 178.4 8.316 179.672C9.444 180.944 11.064 181.58 13.176 181.58C15.264 181.58 16.872 180.944 18 179.672C19.152 178.376 19.728 176.552 19.728 174.2V161.6C19.728 160.952 19.944 160.436 20.376 160.052C20.832 159.644 21.42 159.44 22.14 159.44C22.86 159.44 23.436 159.632 23.868 160.016C24.3 160.4 24.516 160.928 24.516 161.6V174.092C24.516 176.324 24.036 178.292 23.076 179.996C22.14 181.7 20.808 183.02 19.08 183.956C17.352 184.892 15.348 185.36 13.068 185.36ZM30.5792 185.36C29.8592 185.36 29.2832 185.168 28.8512 184.784C28.4192 184.4 28.2032 183.872 28.2032 183.2V169.628C28.2032 166.436 29.1992 163.94 31.1912 162.14C33.1832 160.34 35.9432 159.44 39.4712 159.44C42.9992 159.44 45.7592 160.34 47.7512 162.14C49.7432 163.94 50.7392 166.436 50.7392 169.628V183.2C50.7392 183.872 50.5232 184.4 50.0912 184.784C49.6592 185.168 49.0832 185.36 48.3632 185.36C47.6432 185.36 47.0552 185.168 46.5992 184.784C46.1672 184.376 45.9512 183.848 45.9512 183.2V169.52C45.9512 167.48 45.3992 165.92 44.2952 164.84C43.1912 163.76 41.5832 163.22 39.4712 163.22C37.3592 163.22 35.7512 163.76 34.6472 164.84C33.5432 165.92 32.9912 167.48 32.9912 169.52V183.2C32.9912 183.848 32.7632 184.376 32.3072 184.784C31.8752 185.168 31.2992 185.36 30.5792 185.36ZM58.0306 185.36C57.3106 185.36 56.7346 185.168 56.3026 184.784C55.8706 184.4 55.6546 183.872 55.6546 183.2V161.6C55.6546 160.928 55.8706 160.4 56.3026 160.016C56.7346 159.632 57.3106 159.44 58.0306 159.44C58.7266 159.44 59.3026 159.632 59.7586 160.016C60.2146 160.4 60.4426 160.928 60.4426 161.6V183.2C60.4426 183.872 60.2146 184.4 59.7586 184.784C59.3026 185.168 58.7266 185.36 58.0306 185.36ZM76.7393 185.36C75.2753 185.36 74.1113 184.796 73.2473 183.668C72.3833 182.516 71.5673 180.668 70.7993 178.124L65.6513 161.06C65.5793 160.796 65.5433 160.58 65.5433 160.412C65.5433 159.764 65.9633 159.44 66.8033 159.44C67.2353 159.44 67.5593 159.536 67.7753 159.728C67.9913 159.896 68.1713 160.232 68.3153 160.736L73.4273 177.872C74.0033 179.792 74.5313 181.148 75.0113 181.94C75.5153 182.708 76.0913 183.092 76.7393 183.092C77.3633 183.092 77.9273 182.696 78.4313 181.904C78.9353 181.112 79.4753 179.768 80.0513 177.872L85.1633 160.7C85.3073 160.22 85.4873 159.896 85.7033 159.728C85.9193 159.536 86.2433 159.44 86.6753 159.44C87.5153 159.44 87.9353 159.764 87.9353 160.412C87.9353 160.58 87.8993 160.796 87.8273 161.06L82.6433 178.124C81.8273 180.788 80.9753 182.66 80.0873 183.74C79.2233 184.82 78.1073 185.36 76.7393 185.36ZM95.2577 185.36C94.8497 185.36 94.5257 185.24 94.2857 185C94.0457 184.736 93.9257 184.376 93.9257 183.92V160.88C93.9257 160.424 94.0457 160.076 94.2857 159.836C94.5257 159.572 94.8497 159.44 95.2577 159.44C95.6897 159.44 96.0257 159.572 96.2657 159.836C96.5057 160.1 96.6257 160.448 96.6257 160.88V183.92C96.6257 184.352 96.5057 184.7 96.2657 184.964C96.0257 185.228 95.6897 185.36 95.2577 185.36ZM108.141 185C106.677 185 105.537 184.616 104.721 183.848C103.905 183.056 103.497 181.976 103.497 180.608V164.12C103.497 162.776 103.893 161.72 104.685 160.952C105.501 160.184 106.629 159.8 108.069 159.8H116.601C119.025 159.8 120.909 160.4 122.253 161.6C123.597 162.8 124.269 164.492 124.269 166.676C124.269 167.924 123.945 169.016 123.297 169.952C122.649 170.864 121.761 171.56 120.633 172.04V172.112C121.905 172.568 122.901 173.288 123.621 174.272C124.341 175.232 124.701 176.372 124.701 177.692C124.701 179.948 124.017 181.736 122.649 183.056C121.281 184.352 119.409 185 117.033 185H108.141ZM116.889 171.032C118.305 171.032 119.433 170.636 120.273 169.844C121.113 169.052 121.533 167.996 121.533 166.676C121.533 165.164 121.113 164.012 120.273 163.22C119.433 162.428 118.209 162.032 116.601 162.032H108.105C107.553 162.032 107.097 162.236 106.737 162.644C106.377 163.028 106.197 163.52 106.197 164.12V171.032H116.889ZM116.889 182.732C118.545 182.732 119.805 182.312 120.669 181.472C121.533 180.608 121.965 179.36 121.965 177.728C121.965 176.312 121.509 175.208 120.597 174.416C119.685 173.624 118.437 173.228 116.853 173.228H106.197V180.68C106.197 181.28 106.377 181.772 106.737 182.156C107.097 182.54 107.553 182.732 108.105 182.732H116.889ZM134.192 185C132.728 185 131.588 184.616 130.772 183.848C129.956 183.08 129.548 182 129.548 180.608V164.12C129.548 162.776 129.944 161.72 130.736 160.952C131.552 160.184 132.68 159.8 134.12 159.8H145.28C146.216 159.8 146.684 160.184 146.684 160.952C146.684 161.288 146.564 161.552 146.324 161.744C146.084 161.936 145.736 162.032 145.28 162.032H134.156C133.58 162.032 133.112 162.224 132.752 162.608C132.416 162.992 132.248 163.496 132.248 164.12V170.996H142.544C143.48 170.996 143.948 171.38 143.948 172.148C143.948 172.508 143.816 172.784 143.552 172.976C143.312 173.168 142.976 173.264 142.544 173.264H132.248V180.68C132.248 181.304 132.416 181.808 132.752 182.192C133.112 182.576 133.58 182.768 134.156 182.768H146.072C147.008 182.768 147.476 183.14 147.476 183.884C147.476 184.244 147.344 184.52 147.08 184.712C146.84 184.904 146.504 185 146.072 185H134.192Z" fill="black"/>
</svg>
